<svg width="255" height="23" viewBox="0 0 255 23" fill="none" xmlns="http://www.w3.org/2000/svg">
<path fill-rule="evenodd" clip-rule="evenodd" d="M7.75587 22.9997C11.9683 22.9997 14.8773 20.4648 14.8773 16.8565C14.8773 14.2181 13.44 12.4851 9.72826 10.7133L7.28976 9.54501C4.4455 8.17842 3.74627 7.40676 3.74627 5.83755C3.74627 3.9019 5.31733 2.63444 7.65661 2.63444C8.50043 2.6348 9.33427 2.81672 10.1014 3.16784C10.8685 3.51897 11.5509 4.03105 12.1021 4.66923C12.2158 4.79816 12.3542 4.9031 12.5091 4.97787C12.664 5.05264 12.8323 5.09575 13.0042 5.10464C13.3187 5.09725 13.6193 4.9738 13.848 4.75806C14.0768 4.54231 14.2174 4.24959 14.2428 3.93637C14.2305 3.5326 14.0618 3.14935 13.7724 2.86725C13.0095 2.01499 12.071 1.33785 11.0212 0.882405C9.97145 0.426964 8.83537 0.204036 7.69112 0.228912C3.88008 0.228912 1.03586 2.66892 1.03586 5.97116C1.03586 8.44568 2.50758 10.2132 6.0165 11.8816L8.49389 13.0499C11.3338 14.3863 12.1668 15.2873 12.1668 16.9255C12.1668 19.0939 10.3973 20.5985 7.72136 20.5985C5.58493 20.5985 3.71175 19.594 2.23999 17.7273C2.08612 17.5209 1.87186 17.3673 1.62683 17.2878C1.3818 17.2083 1.1181 17.2068 0.872164 17.2835C0.626231 17.3601 0.410245 17.5113 0.254003 17.7159C0.0977599 17.9205 0.00900357 18.1685 4.89094e-06 18.4257C-0.000835402 18.7209 0.106626 19.0061 0.302105 19.2275C1.17399 20.3827 2.29903 21.3232 3.59101 21.9771C4.88299 22.6309 6.30765 22.9807 7.75587 22.9997ZM41.2006 20.8959L32.7413 1.1299C32.6572 0.868324 32.4922 0.640171 32.2699 0.4783C32.0477 0.316429 31.7798 0.229227 31.5047 0.229227C31.2297 0.229227 30.9618 0.316429 30.7395 0.4783C30.5173 0.640171 30.3523 0.868324 30.2682 1.1299L21.8088 20.8959C21.6908 21.1598 21.6235 21.4435 21.6103 21.7323C21.6159 22.0666 21.7514 22.3857 21.9882 22.6222C22.2249 22.8587 22.5444 22.994 22.8792 22.9997C23.1495 22.9986 23.413 22.9151 23.6344 22.7602C23.8558 22.6053 24.0245 22.3865 24.1179 22.1332L25.7882 18.1584H37.122L38.8916 22.1332C38.992 22.3878 39.1666 22.6066 39.3928 22.7611C39.619 22.9156 39.8864 22.9987 40.1605 22.9997C40.494 22.9891 40.8112 22.8522 41.0475 22.6169C41.2839 22.3816 41.422 22.0654 41.4337 21.7323C41.4208 21.4394 41.341 21.1533 41.2006 20.8959ZM31.5026 4.13466L36.1164 15.8218H26.7593L31.5026 4.13466ZM50.4456 22.6332H61.0759C61.2323 22.6374 61.3878 22.6102 61.5335 22.5534C61.6792 22.4966 61.8121 22.4113 61.9243 22.3024C62.0365 22.1936 62.1258 22.0634 62.1869 21.9196C62.248 21.7758 62.2796 21.6212 62.28 21.465C62.2826 21.3079 62.2529 21.152 62.1928 21.0068C62.1327 20.8617 62.0435 20.7303 61.9307 20.6209C61.8179 20.5114 61.6839 20.4262 61.5369 20.3705C61.3899 20.3147 61.233 20.2896 61.0759 20.2967H51.6799V1.59978C51.6868 1.42372 51.6582 1.2481 51.596 1.08322C51.5337 0.918346 51.4391 0.76757 51.3176 0.639805C51.1961 0.51204 51.0503 0.40989 50.8887 0.339318C50.727 0.268747 50.5529 0.231197 50.3765 0.228912C50.1993 0.228601 50.024 0.264378 49.8611 0.334056C49.6983 0.403733 49.5514 0.505811 49.4294 0.634122C49.3074 0.762432 49.2129 0.914293 49.1516 1.08033C49.0903 1.24636 49.0636 1.42308 49.0731 1.59978V21.2666C49.0685 21.4477 49.101 21.6278 49.1684 21.7959C49.2358 21.9641 49.3368 22.1167 49.4652 22.2446C49.5937 22.3725 49.7468 22.4729 49.9153 22.5397C50.0839 22.6065 50.2643 22.6383 50.4456 22.6332ZM82.4229 1.50064C82.4221 1.33131 82.3875 1.16386 82.3214 1.00797C82.2552 0.852072 82.1587 0.71087 82.0374 0.592548C81.9162 0.474227 81.7725 0.381112 81.615 0.318689C81.4574 0.256266 81.2889 0.225769 81.1195 0.228912C80.5152 0.228912 80.2174 0.46603 79.8463 0.996285L73.6312 11.2134L67.4118 0.996285C67.2981 0.758821 67.1175 0.559683 66.892 0.42336C66.6666 0.287037 66.4063 0.219454 66.1429 0.228912C65.9728 0.218521 65.8024 0.242673 65.6419 0.299902C65.4814 0.357131 65.3342 0.446234 65.2092 0.561868C65.0841 0.677502 64.9838 0.817234 64.9143 0.972656C64.8449 1.12808 64.8077 1.29598 64.805 1.46617C64.826 1.82837 64.9536 2.17628 65.1718 2.4663L72.2932 14.0543V21.6331C72.2839 21.8096 72.3107 21.9861 72.372 22.1518C72.4334 22.3176 72.528 22.469 72.65 22.597C72.772 22.7249 72.9189 22.8267 73.0817 22.8959C73.2445 22.9651 73.4198 23.0004 73.5967 22.9997C73.7728 22.9979 73.9468 22.9609 74.1084 22.8907C74.27 22.8206 74.4159 22.7189 74.5374 22.5915C74.659 22.464 74.7536 22.3135 74.8159 22.1489C74.8782 21.9843 74.9068 21.809 74.9001 21.6331V14.119L82.0862 2.4663C82.2968 2.18752 82.4146 1.84978 82.4229 1.50064ZM91.8793 0.228912C91.7021 0.228601 91.5268 0.264378 91.3639 0.334056C91.2011 0.403733 91.0542 0.505811 90.9322 0.634122C90.8102 0.762432 90.7157 0.914293 90.6544 1.08033C90.5931 1.24636 90.5664 1.42308 90.5759 1.59978V21.6331C90.5665 21.8096 90.5933 21.9861 90.6547 22.1518C90.716 22.3176 90.8107 22.469 90.9327 22.597C91.0547 22.7249 91.2016 22.8267 91.3644 22.8959C91.5272 22.9651 91.7024 23.0004 91.8793 22.9997C92.0555 22.9979 92.2295 22.9609 92.3911 22.8907C92.5527 22.8206 92.6985 22.7189 92.8201 22.5915C92.9416 22.464 93.0363 22.3135 93.0985 22.1489C93.1608 21.9843 93.1895 21.809 93.1827 21.6331V1.59978C93.1896 1.42372 93.161 1.2481 93.0988 1.08322C93.0365 0.918346 92.9419 0.76757 92.8204 0.639805C92.6989 0.51204 92.5531 0.40989 92.3915 0.339318C92.2298 0.268747 92.0557 0.231197 91.8793 0.228912ZM106.588 20.8657L96.7952 10.8124L105.552 2.43183C105.719 2.31301 105.857 2.15834 105.955 1.97926C106.054 1.80018 106.111 1.60125 106.122 1.39718C106.116 1.08319 105.986 0.784259 105.761 0.565446C105.535 0.346634 105.232 0.225673 104.918 0.228912C104.525 0.267879 104.164 0.459967 103.912 0.763473L94.3524 9.88128C94.0965 10.1265 93.9424 10.4589 93.9208 10.8124C93.9378 11.1534 94.0808 11.476 94.3221 11.7178L104.849 22.4651C104.976 22.6196 105.134 22.7467 105.312 22.8386C105.49 22.9305 105.685 22.9853 105.885 22.9997C106.199 23.0029 106.502 22.8819 106.728 22.6631C106.953 22.4443 107.083 22.1454 107.089 21.8314C107.094 21.6413 107.051 21.453 106.963 21.2841C106.876 21.1152 106.747 20.9713 106.588 20.8657ZM133.861 0.228912C133.261 0.228912 132.894 0.496201 132.325 1.36703L124.936 12.886L117.516 1.36703C116.981 0.496201 116.614 0.228912 116.014 0.228912C115.846 0.2325 115.68 0.270566 115.526 0.340739C115.373 0.410912 115.236 0.511692 115.123 0.636911C115.01 0.76213 114.924 0.909128 114.87 1.0688C114.817 1.22848 114.796 1.39744 114.81 1.56532V21.6676C114.804 21.8415 114.834 22.0149 114.897 22.1771C114.96 22.3394 115.055 22.4872 115.177 22.6117C115.299 22.7362 115.445 22.8347 115.606 22.9014C115.767 22.9681 115.939 23.0015 116.114 22.9997C116.287 22.9986 116.459 22.9632 116.618 22.8955C116.778 22.8278 116.923 22.7292 117.044 22.6053C117.165 22.4814 117.26 22.3347 117.324 22.1738C117.389 22.0128 117.42 21.8408 117.417 21.6676V5.83755L123.533 15.3907C123.934 16.0244 124.336 16.3219 124.936 16.3219C125.505 16.3219 125.941 16.0244 126.343 15.3907L132.458 5.83755V21.6676C132.456 21.8408 132.487 22.0128 132.551 22.1738C132.615 22.3347 132.711 22.4814 132.832 22.6053C132.953 22.7292 133.098 22.8278 133.257 22.8955C133.417 22.9632 133.588 22.9986 133.762 22.9997C133.936 23.0015 134.109 22.9681 134.27 22.9014C134.431 22.8347 134.577 22.7362 134.698 22.6117C134.82 22.4872 134.916 22.3394 134.979 22.1771C135.042 22.0149 135.071 21.8415 135.065 21.6676V1.56532C135.079 1.39744 135.059 1.22848 135.005 1.0688C134.951 0.909128 134.865 0.76213 134.753 0.636911C134.64 0.511692 134.503 0.410912 134.349 0.340739C134.196 0.270566 134.03 0.2325 133.861 0.228912ZM162.364 20.8959L153.905 1.1299C153.821 0.868324 153.656 0.640171 153.433 0.4783C153.211 0.316429 152.943 0.229227 152.668 0.229227C152.393 0.229227 152.125 0.316429 151.903 0.4783C151.681 0.640171 151.516 0.868324 151.432 1.1299L142.977 20.8959C142.858 21.1597 142.789 21.4433 142.774 21.7323C142.779 22.0666 142.915 22.3857 143.152 22.6222C143.388 22.8587 143.708 22.994 144.043 22.9997C144.313 22.9986 144.576 22.9151 144.798 22.7602C145.019 22.6053 145.188 22.3865 145.281 22.1332L146.952 18.1584H158.285L160.055 22.1332C160.156 22.3884 160.331 22.6075 160.558 22.762C160.785 22.9165 161.053 22.9993 161.328 22.9997C161.661 22.9889 161.978 22.8519 162.214 22.6165C162.449 22.3811 162.586 22.065 162.597 21.7323C162.584 21.4394 162.504 21.1533 162.364 20.8959ZM152.67 4.13466L157.28 15.8218H147.923L152.67 4.13466ZM176.689 22.9997C180.901 22.9997 183.81 20.4648 183.81 16.8565C183.81 14.2181 182.373 12.4851 178.661 10.7133L176.223 9.54501C173.379 8.17842 172.679 7.40676 172.679 5.83755C172.679 3.9019 174.25 2.63444 176.59 2.63444C177.434 2.6348 178.267 2.81672 179.034 3.16784C179.802 3.51897 180.484 4.03105 181.035 4.66923C181.149 4.79816 181.287 4.9031 181.442 4.97787C181.597 5.05264 181.765 5.09575 181.937 5.10464C182.252 5.09725 182.552 4.9738 182.781 4.75806C183.01 4.54231 183.15 4.24959 183.176 3.93637C183.164 3.5326 182.995 3.14935 182.705 2.86725C181.943 2.01499 181.004 1.33785 179.954 0.882405C178.905 0.426964 177.768 0.204036 176.624 0.228912C172.813 0.228912 169.969 2.66892 169.969 5.97116C169.969 8.44568 171.441 10.2132 174.95 11.8816L177.427 13.0499C180.267 14.3863 181.104 15.2873 181.104 16.9255C181.104 19.0939 179.33 20.5985 176.654 20.5985C174.518 20.5985 172.645 19.594 171.173 17.7273C171.019 17.5209 170.805 17.3673 170.56 17.2878C170.315 17.2083 170.051 17.2068 169.805 17.2835C169.559 17.3601 169.343 17.5113 169.187 17.7159C169.031 17.9205 168.942 18.1685 168.933 18.4257C168.932 18.7209 169.04 19.0061 169.235 19.2275C170.107 20.3827 171.232 21.3232 172.524 21.9771C173.816 22.6309 175.241 22.9807 176.689 22.9997ZM199.033 22.9997C199.21 23.0004 199.385 22.9651 199.548 22.8959C199.711 22.8267 199.858 22.7249 199.98 22.597C200.102 22.469 200.196 22.3176 200.258 22.1518C200.319 21.9861 200.346 21.8096 200.336 21.6331V2.93624H207.056C207.213 2.94038 207.368 2.91322 207.514 2.85641C207.66 2.7996 207.793 2.71424 207.905 2.60539C208.017 2.49654 208.106 2.36637 208.167 2.22255C208.228 2.07872 208.26 1.92415 208.261 1.76792C208.255 1.45371 208.126 1.15436 207.9 0.935398C207.674 0.716441 207.371 0.595732 207.056 0.599653H191.079C190.92 0.594251 190.762 0.620278 190.614 0.676221C190.466 0.732164 190.33 0.816904 190.215 0.925557C190.1 1.03421 190.007 1.1646 189.943 1.30919C189.879 1.45378 189.844 1.6097 189.84 1.76792C189.841 1.9268 189.875 2.08373 189.939 2.22933C190.002 2.37494 190.095 2.50625 190.21 2.61534C190.326 2.72442 190.462 2.80906 190.612 2.8642C190.761 2.91934 190.92 2.94385 191.079 2.93624H197.73V21.6331C197.723 21.8089 197.752 21.9841 197.814 22.1486C197.877 22.313 197.972 22.4633 198.093 22.5907C198.214 22.718 198.36 22.8198 198.522 22.8901C198.683 22.9603 198.857 22.9975 199.033 22.9997ZM216.426 22.6332H228.693C229.007 22.6365 229.31 22.5155 229.535 22.2967C229.761 22.0779 229.891 21.779 229.897 21.465C229.897 21.3086 229.865 21.1539 229.804 21.0099C229.743 20.8659 229.654 20.7356 229.542 20.6267C229.43 20.5178 229.296 20.4324 229.151 20.3757C229.005 20.3191 228.849 20.2922 228.693 20.2967H217.829V12.0152H225.62C225.934 12.0182 226.236 11.897 226.461 11.6782C226.685 11.4593 226.814 11.1605 226.819 10.8469C226.82 10.6908 226.789 10.5361 226.729 10.3921C226.668 10.248 226.58 10.1176 226.468 10.0086C226.356 9.89962 226.223 9.81425 226.077 9.75756C225.931 9.70087 225.776 9.67399 225.62 9.67862H217.829V2.93624H228.291C228.448 2.94038 228.603 2.91322 228.749 2.85641C228.895 2.7996 229.027 2.71424 229.14 2.60539C229.252 2.49654 229.341 2.36637 229.402 2.22255C229.463 2.07872 229.495 1.92415 229.495 1.76792C229.49 1.45371 229.36 1.15436 229.135 0.935398C228.909 0.716441 228.606 0.595732 228.291 0.599653H216.426C216.268 0.595589 216.11 0.623749 215.962 0.682484C215.814 0.741218 215.68 0.829297 215.567 0.941345C215.455 1.05339 215.366 1.18708 215.307 1.33435C215.248 1.48161 215.219 1.63942 215.222 1.79813V21.4305C215.219 21.5894 215.247 21.7474 215.307 21.895C215.366 22.0425 215.454 22.1766 215.567 22.289C215.68 22.4014 215.814 22.4898 215.961 22.549C216.109 22.6082 216.267 22.6368 216.426 22.6332ZM253.579 20.8312L247.795 12.9852C249.091 12.6132 250.225 11.8201 251.019 10.7316C251.812 9.64315 252.219 8.32143 252.176 6.97566C252.176 3.16903 249.332 0.599653 245.119 0.599653H238.701C238.526 0.597216 238.351 0.629979 238.188 0.696061C238.025 0.762143 237.877 0.860206 237.753 0.984392C237.629 1.10858 237.53 1.25641 237.464 1.41912C237.398 1.58184 237.365 1.75613 237.368 1.93174V21.6676C237.362 21.8415 237.391 22.0149 237.454 22.1771C237.517 22.3394 237.613 22.4872 237.735 22.6117C237.856 22.7362 238.002 22.8347 238.163 22.9014C238.324 22.9681 238.497 23.0015 238.671 22.9997C238.845 22.9986 239.016 22.9632 239.176 22.8955C239.335 22.8278 239.48 22.7292 239.601 22.6053C239.722 22.4814 239.818 22.3347 239.882 22.1738C239.946 22.0128 239.978 21.8408 239.975 21.6676V13.3861H244.986L251.641 22.3013C251.763 22.4979 251.929 22.6635 252.126 22.7847C252.323 22.9059 252.545 22.9795 252.776 22.9997C252.934 23.0047 253.092 22.9785 253.24 22.9224C253.388 22.8663 253.524 22.7816 253.639 22.673C253.754 22.5644 253.846 22.4341 253.911 22.2897C253.975 22.1453 254.011 21.9895 254.015 21.8314C253.987 21.4584 253.833 21.1059 253.579 20.8312ZM239.975 2.93624H245.02C247.761 2.93624 249.466 4.53561 249.466 7.01013C249.466 9.51052 247.795 11.0495 245.02 11.0495H239.975V2.93624Z" fill="currentColor"/>
</svg>
