<svg width="24" height="24" viewBox="0 0 24 24" fill="none" xmlns="http://www.w3.org/2000/svg">
<path fill-rule="evenodd" clip-rule="evenodd" d="M0 11.9999C0 5.38317 5.38317 0 11.9999 0C18.6167 0 24 5.38306 24 11.9999C24 18.6167 18.6166 23.9999 11.9999 23.9999C5.38317 23.9999 0 18.6166 0 11.9999ZM9.69742 11.4973C10.3126 11.9798 11.1605 12.3876 12.6241 12.905C13.5533 13.2334 13.5334 13.9838 13.4817 14.2912C13.3758 14.9204 12.8465 15.6005 11.9341 15.6066C11.0074 15.613 10.7413 15.5707 10.0375 15.1103C9.56761 14.8029 8.93738 14.9345 8.62999 15.4045C8.3226 15.8745 8.4543 16.5046 8.92423 16.812C9.68332 17.3086 10.2477 17.5169 10.9241 17.5964V17.9832C10.9241 18.5447 11.3793 18.9999 11.9408 18.9999C12.5024 18.9999 12.9576 18.5447 12.9576 17.9832V17.4964C13.4782 17.3462 13.9531 17.08 14.3607 16.7055C14.9534 16.161 15.3533 15.4233 15.487 14.6283C15.7592 13.0091 14.881 11.546 13.3017 10.9878C12.4384 10.6826 11.4841 10.3143 10.9523 9.89729C10.7995 9.77759 10.7348 9.49623 10.7911 9.19731C10.8197 9.04595 10.9526 8.54024 11.4664 8.38542C12.3362 8.12338 12.9304 8.46961 13.1457 8.63052C13.5956 8.96665 14.2325 8.87474 14.5688 8.42494C14.905 7.97514 14.813 7.33806 14.3632 7.0018C14.1629 6.85207 13.6674 6.5276 12.9576 6.36133V6.01666C12.9576 5.45516 12.5024 4.99994 11.9408 4.99994C11.3793 4.99994 10.9241 5.45516 10.9241 6.01666V6.42606C10.9173 6.42806 10.9105 6.4299 10.9038 6.43175C10.8959 6.4339 10.8879 6.43605 10.8799 6.43847C9.80865 6.76117 9.00896 7.67406 8.79287 8.82078C8.59373 9.87784 8.9403 10.9034 9.69742 11.4973Z" fill="currentColor"/>
</svg>
