<svg width="16" height="16" viewBox="0 0 16 16" fill="none" xmlns="http://www.w3.org/2000/svg">
<g clip-path="url(#clip0_5154_126)">
<path fill-rule="evenodd" clip-rule="evenodd" d="M4.47652 0C3.04793 0 1.88013 1.16781 1.88013 2.59641C1.88013 4.02501 3.04793 5.19282 4.47652 5.19282C5.23051 5.19282 5.91185 4.86753 6.3872 4.35028C6.51637 4.10955 6.66778 3.88239 6.83864 3.67159C6.98901 3.34358 7.07292 2.97937 7.07292 2.59641C7.07292 1.16781 5.90512 0 4.47652 0ZM6.92536 5.49213C7.63054 5.70601 8.24547 6.16171 8.6714 6.79134C8.77344 6.93873 8.86413 7.09746 8.93216 7.26754C8.96617 7.33555 8.95484 7.41493 8.89818 7.48297C8.80749 7.64169 8.70543 7.78909 8.59206 7.93649C8.43331 8.1519 8.25191 8.34465 8.0705 8.52606C7.98828 8.60827 7.89998 8.69048 7.80875 8.76955C7.19118 8.15708 6.80748 7.3091 6.80748 6.37544C6.80748 6.07009 6.84852 5.77391 6.92536 5.49213ZM5.9546 5.57082C5.90492 5.8316 5.87891 6.10059 5.87891 6.37544C5.87891 7.45139 6.27748 8.43746 6.9345 9.19349C6.35378 9.3427 5.80606 9.59307 5.31578 9.93037C5.03615 9.97659 4.75172 9.99999 4.46502 9.99999C3.3539 9.99999 2.27678 9.64853 1.3811 8.97958C1.19967 8.83218 1.01827 8.68478 0.859541 8.52606C0.666787 8.34465 0.496712 8.15192 0.337986 7.93649C0.235946 7.80044 0.122577 7.64169 0.0318639 7.48297C-0.0021425 7.41493 -0.0134707 7.33557 0.0205357 7.26754C0.0885485 7.10881 0.179261 6.93873 0.281302 6.79134C0.791506 6.02034 1.60783 5.51014 2.51487 5.38542C2.62824 5.36274 2.75296 5.39674 2.84367 5.46478C3.31987 5.81626 3.88676 5.99766 4.47635 5.99766C5.00343 5.99766 5.51238 5.85268 5.9546 5.57082Z" fill="currentColor"/>
<path d="M10.1827 3C8.32552 3 6.80737 4.51815 6.80737 6.37533C6.80737 8.23251 8.32552 9.75067 10.1827 9.75067C12.0399 9.75067 13.558 8.23251 13.558 6.37533C13.558 4.51815 12.0399 3 10.1827 3Z" fill="currentColor"/>
<path d="M15.9751 12.4478C15.8867 12.2267 15.7688 12.0204 15.6361 11.8287C14.9581 10.8264 13.9116 10.1632 12.7325 10.001C12.5851 9.98631 12.4229 10.0158 12.305 10.1042C11.686 10.5611 10.949 10.797 10.1825 10.797C9.41607 10.797 8.67912 10.5611 8.06006 10.1042C7.94213 10.0158 7.78 9.97156 7.63262 10.001C6.45346 10.1632 5.39224 10.8264 4.72897 11.8287C4.59632 12.0204 4.47839 12.2415 4.38998 12.4478C4.34577 12.5362 4.3605 12.6394 4.4047 12.7279C4.52263 12.9342 4.67001 13.1406 4.80266 13.3174C5.00901 13.5975 5.2301 13.848 5.48068 14.0839C5.68703 14.2902 5.92285 14.4818 6.15871 14.6735C7.3231 15.5431 8.72335 16 10.1678 16C11.6123 16 13.0125 15.5431 14.1769 14.6735C14.4127 14.4966 14.6486 14.2902 14.8549 14.0839C15.0908 13.848 15.3266 13.5975 15.533 13.3174C15.6803 13.1258 15.813 12.9342 15.9309 12.7279C16.0046 12.6394 16.0193 12.5362 15.9751 12.4478Z" fill="currentColor"/>
</g>
<defs><clipPath id="clip0_5154_126"><rect width="16" height="16" fill="white"/></clipPath></defs>
</svg>
