<svg width="24" height="24" viewBox="0 0 24 24" fill="none" xmlns="http://www.w3.org/2000/svg">
<path d="M3.17406 0C2.26825 0 1.53076 0.737484 1.53076 1.6433V22.3572C1.53076 23.263 2.26825 24 3.17406 24H4.11278V0H3.17406Z" fill="currentColor"/>
<path d="M20.8257 0H19.3333V5.20673C19.3333 5.59467 19.1341 5.94422 18.8 6.14194C18.6277 6.24403 18.437 6.29531 18.2462 6.29531C18.0675 6.29531 17.8877 6.24998 17.7229 6.15984L16.11 5.27447L14.4966 6.15984C14.156 6.34659 13.7536 6.33961 13.4195 6.14194C13.0858 5.94427 12.8861 5.59467 12.8861 5.20673V0H5.60645V24H20.8258C21.7316 24 22.4691 23.263 22.4691 22.3572V1.6433C22.469 0.737484 21.7315 0 20.8257 0Z" fill="currentColor"/>
<path d="M14.3804 0.0224609V4.5196L15.5869 3.85731C15.7508 3.76768 15.9305 3.72287 16.1103 3.72287C16.2895 3.72287 16.4693 3.76768 16.6331 3.85731L17.8397 4.5196V0.0224609H14.3804Z" fill="currentColor"/>
</svg>
