<svg width="24" height="24" viewBox="0 0 24 24" fill="none" xmlns="http://www.w3.org/2000/svg">
<g clip-path="url(#clip0)">
<path d="M15 13C14.447 13 14 13.448 14 14V18C14 18.551 13.552 19 13 19H10V4C10 3.146 9.456 2.383 8.638 2.099L8.342 2H13C13.552 2 14 2.449 14 3V6C14 6.552 14.447 7 15 7C15.553 7 16 6.552 16 6V3C16 1.346 14.654 0 13 0H2.25C2.212 0 2.18 0.017 2.143 0.022C2.095 0.018 2.049 0 2 0C0.897 0 0 0.897 0 2V20C0 20.854 0.544 21.617 1.362 21.901L7.38 23.907C7.584 23.97 7.787 24 8 24C9.103 24 10 23.103 10 22V21H13C14.654 21 16 19.654 16 18V14C16 13.448 15.553 13 15 13Z" fill="currentColor"/>
<path d="M23.707 9.29307L19.707 5.29307C19.421 5.00707 18.991 4.92107 18.617 5.07607C18.244 5.23107 18 5.59607 18 6.00007V9.00007H14C13.448 9.00007 13 9.44807 13 10.0001C13 10.5521 13.448 11.0001 14 11.0001H18V14.0001C18 14.4041 18.244 14.7691 18.617 14.9241C18.991 15.0791 19.421 14.9931 19.707 14.7071L23.707 10.7071C24.098 10.3161 24.098 9.68407 23.707 9.29307Z" fill="currentColor"/>
</g>
<defs><clipPath id="clip0"><rect width="24" height="24" fill="white"/></clipPath></defs>
</svg>
