<svg width="16" height="16" viewBox="0 0 16 16" fill="none" xmlns="http://www.w3.org/2000/svg">
<g clip-path="url(#clip0)">
<path fill-rule="evenodd" clip-rule="evenodd" d="M4 2.4V3.2H2.4C1.76348 3.2 1.15303 3.45286 0.702943 3.90294C0.252856 4.35303 0 4.96348 0 5.6V8H4V7.2C4 6.98783 4.08428 6.78434 4.23431 6.63432C4.38434 6.48429 4.58783 6.4 4.8 6.4C5.01217 6.4 5.21566 6.48429 5.36569 6.63432C5.51571 6.78434 5.6 6.98783 5.6 7.2V8H10.4V7.2C10.4 6.98783 10.4843 6.78434 10.6343 6.63432C10.7843 6.48429 10.9878 6.4 11.2 6.4C11.4122 6.4 11.6157 6.48429 11.7657 6.63432C11.9157 6.78434 12 6.98783 12 7.2V8H16V5.6C16 4.96348 15.7471 4.35303 15.2971 3.90294C14.847 3.45286 14.2365 3.2 13.6 3.2H12V2.4C12 1.76348 11.7471 1.15303 11.2971 0.702944C10.847 0.252856 10.2365 0 9.6 0H6.4C5.76348 0 5.15303 0.252856 4.70294 0.702944C4.25286 1.15303 4 1.76348 4 2.4ZM5.6 10.4V9.6H10.4V10.4C10.4 10.6122 10.4843 10.8157 10.6343 10.9657C10.7843 11.1157 10.9878 11.2 11.2 11.2C11.4122 11.2 11.6157 11.1157 11.7657 10.9657C11.9157 10.8157 12 10.6122 12 10.4V9.6H16V13.6C16 14.2365 15.7471 14.847 15.2971 15.2971C14.847 15.7471 14.2365 16 13.6 16H2.4C1.76348 16 1.15303 15.7471 0.702943 15.2971C0.252856 14.847 0 14.2365 0 13.6V9.6H4V10.4C4 10.6122 4.08428 10.8157 4.23431 10.9657C4.38434 11.1157 4.58783 11.2 4.8 11.2C5.01217 11.2 5.21566 11.1157 5.36569 10.9657C5.51571 10.8157 5.6 10.6122 5.6 10.4ZM8.8 1.6C9.01217 1.6 9.21566 1.68429 9.36568 1.83431C9.51571 1.98434 9.6 2.18783 9.6 2.4V3.2H6.4V2.4C6.4 2.18783 6.48429 1.98434 6.63431 1.83431C6.78434 1.68429 6.98783 1.6 7.2 1.6H8.8Z" fill="currentColor"/>
</g>
<defs><clipPath id="clip0"><rect width="16" height="16" fill="white"/></clipPath></defs>
</svg>
