<svg width="24" height="24" viewBox="0 0 24 24" fill="none" xmlns="http://www.w3.org/2000/svg">
<path d="M12.0018 0C8.57321 0 5.77051 2.80271 5.77051 6.2313C5.77051 9.6599 8.57321 12.4626 12.0018 12.4626C15.4304 12.4626 18.2331 9.6599 18.2331 6.2313C18.2331 2.80271 15.4304 0 12.0018 0Z" fill="currentColor"/>
<path d="M22.6958 17.4421C22.5325 17.034 22.3148 16.653 22.07 16.2993C20.8182 14.4489 18.8863 13.2244 16.7094 12.9251C16.4373 12.8979 16.138 12.9523 15.9203 13.1156C14.7774 13.9591 13.4169 14.3945 12.0019 14.3945C10.5869 14.3945 9.22641 13.9591 8.08354 13.1156C7.86584 12.9523 7.56651 12.8707 7.29443 12.9251C5.11755 13.2244 3.15839 14.4489 1.93391 16.2993C1.68901 16.653 1.4713 17.0612 1.30807 17.4421C1.22646 17.6054 1.25365 17.7959 1.33526 17.9592C1.55297 18.3401 1.82505 18.7211 2.06995 19.0476C2.45089 19.5646 2.85906 20.0272 3.32167 20.4626C3.70261 20.8435 4.13797 21.1972 4.57339 21.551C6.72302 23.1565 9.30807 24 11.9747 24C14.6414 24 17.2265 23.1564 19.3761 21.551C19.8115 21.2245 20.2468 20.8435 20.6278 20.4626C21.0632 20.0272 21.4985 19.5646 21.8795 19.0476C22.1516 18.6939 22.3966 18.3401 22.6142 17.9592C22.7502 17.7959 22.7774 17.6054 22.6958 17.4421Z" fill="currentColor"/>
</svg>
