<svg width="24" height="24" viewBox="0 0 24 24" fill="none" xmlns="http://www.w3.org/2000/svg">
<path d="M3.03802 6.309C3.063 6.24698 3.10003 6.192 3.147 6.14602L9.14602 0.147C9.192 0.101016 9.24802 0.0639844 9.309 0.0380156C9.36998 0.0129844 9.435 0 9.50002 0H19.5C20.327 0 21 0.672984 21 1.5V22.5C21 23.327 20.327 24 19.5 24H4.5C3.67299 24 3 23.327 3 22.5V6.50002C3 6.435 3.01299 6.36998 3.03802 6.309ZM7.5 18H16.5C16.776 18 17 17.776 17 17.5C17 17.224 16.776 17 16.5 17H7.5C7.224 17 6.99998 17.224 6.99998 17.5C6.99998 17.776 7.224 18 7.5 18ZM7.5 14H16.5C16.776 14 17 13.776 17 13.5C17 13.224 16.776 13 16.5 13H7.5C7.224 13 6.99998 13.224 6.99998 13.5C6.99998 13.776 7.224 14 7.5 14ZM7.5 9.99998H16.5C16.776 9.99998 17 9.77597 17 9.49997C17 9.22397 16.776 9 16.5 9H7.5C7.224 9 6.99998 9.22402 6.99998 9.50002C6.99998 9.77602 7.224 9.99998 7.5 9.99998ZM8.49998 6C8.775 6 9 5.77598 9 5.49998V1.707L4.707 6H8.49998Z" fill="currentColor"/>
</svg>
