<svg width="24" height="24" viewBox="0 0 24 24" fill="none" xmlns="http://www.w3.org/2000/svg">
<path d="M6.77808 22.4878C6.77808 23.3228 6.10132 24 5.26581 24H3.06842C2.23291 23.9995 1.55615 23.3228 1.55615 22.4878V9.32379C1.55615 8.48881 2.23291 7.81152 3.06842 7.81152H5.26634C6.10132 7.81152 6.77861 8.48829 6.77861 9.32379L6.77808 22.4878Z" fill="currentColor"/>
<path d="M14.6111 22.4877C14.6111 23.3227 13.9343 24 13.0988 24H10.9014C10.0664 24 9.38916 23.3232 9.38916 22.4877V1.51227C9.38864 0.677285 10.0654 0 10.9009 0H13.0983C13.9343 0.000522193 14.6106 0.677285 14.6106 1.51227V22.4877H14.6111Z" fill="currentColor"/>
<path d="M22.4436 22.4877C22.4436 23.3227 21.7669 24 20.9314 24H18.7335C17.8985 24 17.2212 23.3232 17.2212 22.4877V5.21149C17.2212 4.3765 17.898 3.69922 18.7335 3.69922H20.9314C21.7674 3.69922 22.4436 4.3765 22.4436 5.21149V22.4877Z" fill="currentColor"/>
</svg>
